<svg xmlns="http://www.w3.org/2000/svg" width="21" height="18" viewBox="0 0 21 18">
  <g fill="none" fill-rule="evenodd">
    <path fill="#282828" d="M1.52173913 0L19.4782609 0C20.3188696 0 21 .694862069 21 1.55172414 21 2.40858621 20.3188696 3.10344828 19.4782609 3.10344828L1.52173913 3.10344828C.681434783 3.10344828 0 2.40858621 0 1.55172414 0 .694862069.681434783 0 1.52173913 0M19.4782609 7.44827586C20.3188696 7.44827586 21 8.14313793 21 9 21 9.85686207 20.3188696 10.5517241 19.4782609 10.5517241L1.52173913 10.5517241C.681434783 10.5517241 0 9.85686207 0 9 0 8.14313793.681434783 7.44827586 1.52173913 7.44827586L19.4782609 7.44827586zM1.52173913 14.8965517L19.4782609 14.8965517C20.3188696 14.8965517 21 15.5911034 21 16.4482759 21 17.3054483 20.3188696 18 19.4782609 18L1.52173913 18C.681434783 18 0 17.3054483 0 16.4482759 0 15.5911034.681434783 14.8965517 1.52173913 14.8965517"/>
  </g>
</svg>
